<svg width="307" height="82" viewBox="0 0 307 82" fill="none" xmlns="http://www.w3.org/2000/svg">
<path d="M61.438 38.204C59.67 38.204 57.97 37.9207 56.338 37.354C54.7287 36.7647 53.482 36.0167 52.598 35.11L53.584 33.172C54.4227 33.988 55.5447 34.6793 56.95 35.246C58.378 35.79 59.874 36.062 61.438 36.062C62.934 36.062 64.1467 35.8807 65.076 35.518C66.028 35.1327 66.7193 34.6227 67.15 33.988C67.6033 33.3533 67.83 32.6507 67.83 31.88C67.83 30.9507 67.558 30.2027 67.014 29.636C66.4927 29.0693 65.8013 28.6273 64.94 28.31C64.0787 27.97 63.1267 27.6753 62.084 27.426C61.0413 27.1767 59.9987 26.916 58.956 26.644C57.9133 26.3493 56.95 25.964 56.066 25.488C55.2047 25.012 54.502 24.3887 53.958 23.618C53.4367 22.8247 53.176 21.7933 53.176 20.524C53.176 19.3453 53.482 18.2687 54.094 17.294C54.7287 16.2967 55.692 15.5033 56.984 14.914C58.276 14.302 59.9307 13.996 61.948 13.996C63.2853 13.996 64.6113 14.1887 65.926 14.574C67.2407 14.9367 68.374 15.4467 69.326 16.104L68.476 18.11C67.456 17.43 66.368 16.9313 65.212 16.614C64.0787 16.2967 62.9793 16.138 61.914 16.138C60.486 16.138 59.3073 16.3307 58.378 16.716C57.4487 17.1013 56.7573 17.6227 56.304 18.28C55.8733 18.9147 55.658 19.64 55.658 20.456C55.658 21.3853 55.9187 22.1333 56.44 22.7C56.984 23.2667 57.6867 23.7087 58.548 24.026C59.432 24.3433 60.3953 24.6267 61.438 24.876C62.4807 25.1253 63.512 25.3973 64.532 25.692C65.5747 25.9867 66.5267 26.372 67.388 26.848C68.272 27.3013 68.9747 27.9133 69.496 28.684C70.04 29.4547 70.312 30.4633 70.312 31.71C70.312 32.866 69.9947 33.9427 69.36 34.94C68.7253 35.9147 67.7507 36.708 66.436 37.32C65.144 37.9093 63.478 38.204 61.438 38.204ZM86.198 38.204C84.4073 38.204 82.7413 37.9093 81.2 37.32C79.6813 36.708 78.3553 35.858 77.222 34.77C76.1113 33.6593 75.2386 32.3787 74.604 30.928C73.992 29.4547 73.686 27.8453 73.686 26.1C73.686 24.3547 73.992 22.7567 74.604 21.306C75.2386 19.8327 76.1113 18.552 77.222 17.464C78.3553 16.3533 79.6813 15.5033 81.2 14.914C82.7186 14.302 84.3846 13.996 86.198 13.996C87.9886 13.996 89.6433 14.302 91.162 14.914C92.6806 15.5033 93.9953 16.342 95.106 17.43C96.2393 18.518 97.112 19.7987 97.724 21.272C98.3586 22.7453 98.676 24.3547 98.676 26.1C98.676 27.8453 98.3586 29.4547 97.724 30.928C97.112 32.4013 96.2393 33.682 95.106 34.77C93.9953 35.858 92.6806 36.708 91.162 37.32C89.6433 37.9093 87.9886 38.204 86.198 38.204ZM86.198 35.96C87.626 35.96 88.9406 35.722 90.142 35.246C91.366 34.7473 92.42 34.056 93.304 33.172C94.2106 32.2653 94.9133 31.2227 95.412 30.044C95.9106 28.8427 96.16 27.528 96.16 26.1C96.16 24.672 95.9106 23.3687 95.412 22.19C94.9133 20.9887 94.2106 19.946 93.304 19.062C92.42 18.1553 91.366 17.464 90.142 16.988C88.9406 16.4893 87.626 16.24 86.198 16.24C84.77 16.24 83.444 16.4893 82.22 16.988C80.996 17.464 79.9306 18.1553 79.024 19.062C78.14 19.946 77.4373 20.9887 76.916 22.19C76.4173 23.3687 76.168 24.672 76.168 26.1C76.168 27.5053 76.4173 28.8087 76.916 30.01C77.4373 31.2113 78.14 32.2653 79.024 33.172C79.9306 34.056 80.996 34.7473 82.22 35.246C83.444 35.722 84.77 35.96 86.198 35.96ZM104.315 38V14.2H106.831V35.824H120.159V38H104.315ZM124.337 38V14.2H126.853V38H124.337ZM141.159 38.204C139.391 38.204 137.691 37.9207 136.059 37.354C134.449 36.7647 133.203 36.0167 132.319 35.11L133.305 33.172C134.143 33.988 135.265 34.6793 136.671 35.246C138.099 35.79 139.595 36.062 141.159 36.062C142.655 36.062 143.867 35.8807 144.797 35.518C145.749 35.1327 146.44 34.6227 146.871 33.988C147.324 33.3533 147.551 32.6507 147.551 31.88C147.551 30.9507 147.279 30.2027 146.735 29.636C146.213 29.0693 145.522 28.6273 144.661 28.31C143.799 27.97 142.847 27.6753 141.805 27.426C140.762 27.1767 139.719 26.916 138.677 26.644C137.634 26.3493 136.671 25.964 135.787 25.488C134.925 25.012 134.223 24.3887 133.679 23.618C133.157 22.8247 132.897 21.7933 132.897 20.524C132.897 19.3453 133.203 18.2687 133.815 17.294C134.449 16.2967 135.413 15.5033 136.705 14.914C137.997 14.302 139.651 13.996 141.669 13.996C143.006 13.996 144.332 14.1887 145.647 14.574C146.961 14.9367 148.095 15.4467 149.047 16.104L148.197 18.11C147.177 17.43 146.089 16.9313 144.933 16.614C143.799 16.2967 142.7 16.138 141.635 16.138C140.207 16.138 139.028 16.3307 138.099 16.716C137.169 17.1013 136.478 17.6227 136.025 18.28C135.594 18.9147 135.379 19.64 135.379 20.456C135.379 21.3853 135.639 22.1333 136.161 22.7C136.705 23.2667 137.407 23.7087 138.269 24.026C139.153 24.3433 140.116 24.6267 141.159 24.876C142.201 25.1253 143.233 25.3973 144.253 25.692C145.295 25.9867 146.247 26.372 147.109 26.848C147.993 27.3013 148.695 27.9133 149.217 28.684C149.761 29.4547 150.033 30.4633 150.033 31.71C150.033 32.866 149.715 33.9427 149.081 34.94C148.446 35.9147 147.471 36.708 146.157 37.32C144.865 37.9093 143.199 38.204 141.159 38.204ZM164.413 38V14.2H173.321C175.338 14.2 177.072 14.5287 178.523 15.186C179.974 15.8207 181.084 16.75 181.855 17.974C182.648 19.1753 183.045 20.6373 183.045 22.36C183.045 24.0373 182.648 25.488 181.855 26.712C181.084 27.9133 179.974 28.8427 178.523 29.5C177.072 30.1573 175.338 30.486 173.321 30.486H165.807L166.929 29.296V38H164.413ZM166.929 29.5L165.807 28.276H173.253C175.633 28.276 177.435 27.766 178.659 26.746C179.906 25.7033 180.529 24.2413 180.529 22.36C180.529 20.456 179.906 18.9827 178.659 17.94C177.435 16.8973 175.633 16.376 173.253 16.376H165.807L166.929 15.186V29.5ZM198.995 38V34.056L198.893 33.41V26.814C198.893 25.2953 198.463 24.128 197.601 23.312C196.763 22.496 195.505 22.088 193.827 22.088C192.671 22.088 191.572 22.2807 190.529 22.666C189.487 23.0513 188.603 23.5613 187.877 24.196L186.789 22.394C187.696 21.6233 188.784 21.034 190.053 20.626C191.323 20.1953 192.66 19.98 194.065 19.98C196.377 19.98 198.157 20.558 199.403 21.714C200.673 22.8473 201.307 24.5813 201.307 26.916V38H198.995ZM192.841 38.17C191.504 38.17 190.337 37.9547 189.339 37.524C188.365 37.0707 187.617 36.4587 187.095 35.688C186.574 34.8947 186.313 33.988 186.313 32.968C186.313 32.0387 186.529 31.2 186.959 30.452C187.413 29.6813 188.138 29.0693 189.135 28.616C190.155 28.14 191.515 27.902 193.215 27.902H199.369V29.704H193.283C191.561 29.704 190.359 30.01 189.679 30.622C189.022 31.234 188.693 31.9933 188.693 32.9C188.693 33.92 189.09 34.736 189.883 35.348C190.677 35.96 191.787 36.266 193.215 36.266C194.575 36.266 195.743 35.96 196.717 35.348C197.715 34.7133 198.44 33.8067 198.893 32.628L199.437 34.294C198.984 35.4727 198.191 36.4133 197.057 37.116C195.947 37.8187 194.541 38.17 192.841 38.17ZM207.864 38V20.15H210.176V25.012L209.938 24.162C210.437 22.802 211.275 21.7707 212.454 21.068C213.633 20.3427 215.095 19.98 216.84 19.98V22.326C216.749 22.326 216.659 22.326 216.568 22.326C216.477 22.3033 216.387 22.292 216.296 22.292C214.415 22.292 212.941 22.87 211.876 24.026C210.811 25.1593 210.278 26.78 210.278 28.888V38H207.864ZM227.653 38.17C225.975 38.17 224.683 37.7167 223.777 36.81C222.87 35.9033 222.417 34.6227 222.417 32.968V16.206H224.831V32.832C224.831 33.8747 225.091 34.6793 225.613 35.246C226.157 35.8127 226.927 36.096 227.925 36.096C228.99 36.096 229.874 35.79 230.577 35.178L231.427 36.912C230.951 37.3427 230.373 37.66 229.693 37.864C229.035 38.068 228.355 38.17 227.653 38.17ZM219.221 22.156V20.15H230.271V22.156H219.221ZM244.933 19.98C246.384 19.98 247.653 20.2633 248.741 20.83C249.852 21.374 250.713 22.2127 251.325 23.346C251.96 24.4793 252.277 25.9073 252.277 27.63V38H249.863V27.868C249.863 25.9867 249.387 24.57 248.435 23.618C247.506 22.6433 246.191 22.156 244.491 22.156C243.222 22.156 242.111 22.4167 241.159 22.938C240.23 23.4367 239.504 24.1733 238.983 25.148C238.484 26.1 238.235 27.256 238.235 28.616V38H235.821V20.15H238.133V25.046L237.759 24.128C238.326 22.836 239.232 21.8273 240.479 21.102C241.726 20.354 243.21 19.98 244.933 19.98ZM266.38 38.17C264.521 38.17 262.889 37.7847 261.484 37.014C260.078 36.2207 258.979 35.144 258.186 33.784C257.392 32.4013 256.996 30.826 256.996 29.058C256.996 27.29 257.37 25.726 258.118 24.366C258.888 23.006 259.931 21.9407 261.246 21.17C262.583 20.3767 264.079 19.98 265.734 19.98C267.411 19.98 268.896 20.3653 270.188 21.136C271.502 21.884 272.534 22.9493 273.282 24.332C274.03 25.692 274.404 27.2673 274.404 29.058C274.404 29.1713 274.392 29.296 274.37 29.432C274.37 29.5453 274.37 29.67 274.37 29.806H258.832V28.004H273.078L272.126 28.718C272.126 27.426 271.842 26.2813 271.276 25.284C270.732 24.264 269.984 23.4707 269.032 22.904C268.08 22.3373 266.98 22.054 265.734 22.054C264.51 22.054 263.41 22.3373 262.436 22.904C261.461 23.4707 260.702 24.264 260.158 25.284C259.614 26.304 259.342 27.4713 259.342 28.786V29.16C259.342 30.52 259.636 31.7213 260.226 32.764C260.838 33.784 261.676 34.5887 262.742 35.178C263.83 35.7447 265.065 36.028 266.448 36.028C267.536 36.028 268.544 35.8353 269.474 35.45C270.426 35.0647 271.242 34.4753 271.922 33.682L273.282 35.246C272.488 36.198 271.491 36.9233 270.29 37.422C269.111 37.9207 267.808 38.17 266.38 38.17ZM279.317 38V20.15H281.629V25.012L281.391 24.162C281.89 22.802 282.729 21.7707 283.907 21.068C285.086 20.3427 286.548 19.98 288.293 19.98V22.326C288.203 22.326 288.112 22.326 288.021 22.326C287.931 22.3033 287.84 22.292 287.749 22.292C285.868 22.292 284.395 22.87 283.329 24.026C282.264 25.1593 281.731 26.78 281.731 28.888V38H279.317ZM297.691 38.17C296.218 38.17 294.824 37.966 293.509 37.558C292.195 37.1273 291.163 36.5947 290.415 35.96L291.503 34.056C292.229 34.6 293.158 35.076 294.291 35.484C295.425 35.8693 296.615 36.062 297.861 36.062C299.561 36.062 300.785 35.8013 301.533 35.28C302.281 34.736 302.655 34.022 302.655 33.138C302.655 32.4807 302.44 31.9707 302.009 31.608C301.601 31.2227 301.057 30.9393 300.377 30.758C299.697 30.554 298.938 30.384 298.099 30.248C297.261 30.112 296.422 29.9533 295.583 29.772C294.767 29.5907 294.019 29.33 293.339 28.99C292.659 28.6273 292.104 28.14 291.673 27.528C291.265 26.916 291.061 26.1 291.061 25.08C291.061 24.1053 291.333 23.2327 291.877 22.462C292.421 21.6913 293.215 21.0907 294.257 20.66C295.323 20.2067 296.615 19.98 298.133 19.98C299.289 19.98 300.445 20.1387 301.601 20.456C302.757 20.7507 303.709 21.1473 304.457 21.646L303.403 23.584C302.61 23.04 301.76 22.6547 300.853 22.428C299.947 22.1787 299.04 22.054 298.133 22.054C296.524 22.054 295.334 22.3373 294.563 22.904C293.815 23.448 293.441 24.1507 293.441 25.012C293.441 25.692 293.645 26.2247 294.053 26.61C294.484 26.9953 295.039 27.3013 295.719 27.528C296.422 27.732 297.181 27.902 297.997 28.038C298.836 28.174 299.663 28.344 300.479 28.548C301.318 28.7293 302.077 28.99 302.757 29.33C303.46 29.6473 304.015 30.112 304.423 30.724C304.854 31.3133 305.069 32.0953 305.069 33.07C305.069 34.1127 304.775 35.0193 304.185 35.79C303.619 36.538 302.78 37.1273 301.669 37.558C300.581 37.966 299.255 38.17 297.691 38.17Z" fill="white"/>
<path d="M53.888 74V62.8H63.312V74H62.144V63.504L62.448 63.824H54.752L55.056 63.504V74H53.888ZM70.4191 74.08C69.5445 74.08 68.7765 73.8987 68.1151 73.536C67.4538 73.1627 66.9365 72.656 66.5631 72.016C66.1898 71.3653 66.0031 70.624 66.0031 69.792C66.0031 68.96 66.1791 68.224 66.5311 67.584C66.8938 66.944 67.3845 66.4427 68.0031 66.08C68.6325 65.7067 69.3365 65.52 70.1151 65.52C70.9045 65.52 71.6031 65.7013 72.2111 66.064C72.8298 66.416 73.3151 66.9173 73.6671 67.568C74.0191 68.208 74.1951 68.9493 74.1951 69.792C74.1951 69.8453 74.1898 69.904 74.1791 69.968C74.1791 70.0213 74.1791 70.08 74.1791 70.144H66.8671V69.296H73.5711L73.1231 69.632C73.1231 69.024 72.9898 68.4853 72.7231 68.016C72.4671 67.536 72.1151 67.1627 71.6671 66.896C71.2191 66.6293 70.7018 66.496 70.1151 66.496C69.5391 66.496 69.0218 66.6293 68.5631 66.896C68.1045 67.1627 67.7471 67.536 67.4911 68.016C67.2351 68.496 67.1071 69.0453 67.1071 69.664V69.84C67.1071 70.48 67.2458 71.0453 67.5231 71.536C67.8111 72.016 68.2058 72.3947 68.7071 72.672C69.2191 72.9387 69.8005 73.072 70.4511 73.072C70.9631 73.072 71.4378 72.9813 71.8751 72.8C72.3231 72.6187 72.7071 72.3413 73.0271 71.968L73.6671 72.704C73.2938 73.152 72.8245 73.4933 72.2591 73.728C71.7045 73.9627 71.0911 74.08 70.4191 74.08ZM81.0458 74.08C80.3204 74.08 79.6644 73.9147 79.0778 73.584C78.4911 73.2427 78.0218 72.7573 77.6698 72.128C77.3284 71.488 77.1578 70.7093 77.1578 69.792C77.1578 68.8747 77.3284 68.1013 77.6698 67.472C78.0111 66.832 78.4751 66.3467 79.0618 66.016C79.6484 65.6853 80.3098 65.52 81.0458 65.52C81.8458 65.52 82.5604 65.7013 83.1898 66.064C83.8298 66.416 84.3311 66.9173 84.6938 67.568C85.0564 68.208 85.2378 68.9493 85.2378 69.792C85.2378 70.6453 85.0564 71.392 84.6938 72.032C84.3311 72.672 83.8298 73.1733 83.1898 73.536C82.5604 73.8987 81.8458 74.08 81.0458 74.08ZM76.7098 77.104V65.6H77.7978V68.128L77.6858 69.808L77.8458 71.504V77.104H76.7098ZM80.9658 73.072C81.5631 73.072 82.0964 72.9387 82.5658 72.672C83.0351 72.3947 83.4084 72.0107 83.6858 71.52C83.9631 71.0187 84.1018 70.4427 84.1018 69.792C84.1018 69.1413 83.9631 68.5707 83.6858 68.08C83.4084 67.5893 83.0351 67.2053 82.5658 66.928C82.0964 66.6507 81.5631 66.512 80.9658 66.512C80.3684 66.512 79.8298 66.6507 79.3498 66.928C78.8804 67.2053 78.5071 67.5893 78.2298 68.08C77.9631 68.5707 77.8298 69.1413 77.8298 69.792C77.8298 70.4427 77.9631 71.0187 78.2298 71.52C78.5071 72.0107 78.8804 72.3947 79.3498 72.672C79.8298 72.9387 80.3684 73.072 80.9658 73.072ZM91.2785 74.08C90.4038 74.08 89.6358 73.8987 88.9745 73.536C88.3132 73.1627 87.7958 72.656 87.4225 72.016C87.0492 71.3653 86.8625 70.624 86.8625 69.792C86.8625 68.96 87.0385 68.224 87.3905 67.584C87.7532 66.944 88.2438 66.4427 88.8625 66.08C89.4918 65.7067 90.1958 65.52 90.9745 65.52C91.7638 65.52 92.4625 65.7013 93.0705 66.064C93.6892 66.416 94.1745 66.9173 94.5265 67.568C94.8785 68.208 95.0545 68.9493 95.0545 69.792C95.0545 69.8453 95.0492 69.904 95.0385 69.968C95.0385 70.0213 95.0385 70.08 95.0385 70.144H87.7265V69.296H94.4305L93.9825 69.632C93.9825 69.024 93.8492 68.4853 93.5825 68.016C93.3265 67.536 92.9745 67.1627 92.5265 66.896C92.0785 66.6293 91.5612 66.496 90.9745 66.496C90.3985 66.496 89.8812 66.6293 89.4225 66.896C88.9638 67.1627 88.6065 67.536 88.3505 68.016C88.0945 68.496 87.9665 69.0453 87.9665 69.664V69.84C87.9665 70.48 88.1052 71.0453 88.3825 71.536C88.6705 72.016 89.0652 72.3947 89.5665 72.672C90.0785 72.9387 90.6598 73.072 91.3105 73.072C91.8225 73.072 92.2972 72.9813 92.7345 72.8C93.1825 72.6187 93.5665 72.3413 93.8865 71.968L94.5265 72.704C94.1532 73.152 93.6838 73.4933 93.1185 73.728C92.5638 73.9627 91.9505 74.08 91.2785 74.08ZM103.157 73.456V66.592H99.1093L99.0133 68.464C98.9919 69.0293 98.9546 69.584 98.9013 70.128C98.8586 70.672 98.7786 71.1733 98.6613 71.632C98.5546 72.08 98.3999 72.448 98.1973 72.736C97.9946 73.0133 97.7333 73.1733 97.4133 73.216L96.2773 73.008C96.6079 73.0187 96.8799 72.9013 97.0933 72.656C97.3066 72.4 97.4719 72.0533 97.5893 71.616C97.7066 71.1787 97.7919 70.6827 97.8453 70.128C97.8986 69.5627 97.9413 68.9867 97.9733 68.4L98.0853 65.6H104.293V73.456H103.157ZM95.9253 76.032V73.008H105.605V76.032H104.533V74H96.9973V76.032H95.9253ZM111.275 74.08C110.464 74.08 109.734 73.8987 109.083 73.536C108.443 73.1627 107.936 72.656 107.563 72.016C107.19 71.3653 107.003 70.624 107.003 69.792C107.003 68.9493 107.19 68.208 107.563 67.568C107.936 66.928 108.443 66.4267 109.083 66.064C109.723 65.7013 110.454 65.52 111.275 65.52C112.107 65.52 112.843 65.7013 113.483 66.064C114.134 66.4267 114.64 66.928 115.003 67.568C115.376 68.208 115.563 68.9493 115.563 69.792C115.563 70.624 115.376 71.3653 115.003 72.016C114.64 72.656 114.134 73.1627 113.483 73.536C112.832 73.8987 112.096 74.08 111.275 74.08ZM111.275 73.072C111.883 73.072 112.422 72.9387 112.891 72.672C113.36 72.3947 113.728 72.0107 113.995 71.52C114.272 71.0187 114.411 70.4427 114.411 69.792C114.411 69.1307 114.272 68.5547 113.995 68.064C113.728 67.5733 113.36 67.1947 112.891 66.928C112.422 66.6507 111.888 66.512 111.291 66.512C110.694 66.512 110.16 66.6507 109.691 66.928C109.222 67.1947 108.848 67.5733 108.571 68.064C108.294 68.5547 108.155 69.1307 108.155 69.792C108.155 70.4427 108.294 71.0187 108.571 71.52C108.848 72.0107 109.222 72.3947 109.691 72.672C110.16 72.9387 110.688 73.072 111.275 73.072ZM117.991 74V65.6H121.703C122.652 65.6 123.399 65.7813 123.943 66.144C124.498 66.5067 124.775 67.04 124.775 67.744C124.775 68.4267 124.514 68.9547 123.991 69.328C123.468 69.6907 122.78 69.872 121.927 69.872L122.151 69.536C123.154 69.536 123.89 69.7227 124.359 70.096C124.828 70.4693 125.063 71.008 125.063 71.712C125.063 72.4373 124.796 73.0027 124.263 73.408C123.74 73.8027 122.924 74 121.815 74H117.991ZM119.095 73.104H121.767C122.482 73.104 123.02 72.992 123.383 72.768C123.756 72.5333 123.943 72.16 123.943 71.648C123.943 71.136 123.778 70.7627 123.447 70.528C123.116 70.2933 122.594 70.176 121.879 70.176H119.095V73.104ZM119.095 69.328H121.623C122.274 69.328 122.77 69.2053 123.111 68.96C123.463 68.7147 123.639 68.3573 123.639 67.888C123.639 67.4187 123.463 67.0667 123.111 66.832C122.77 66.5973 122.274 66.48 121.623 66.48H119.095V69.328ZM135.917 74V65.6H137.053V74H135.917ZM131.261 68.56C132.317 68.5707 133.123 68.8053 133.677 69.264C134.232 69.7227 134.509 70.384 134.509 71.248C134.509 72.144 134.211 72.832 133.613 73.312C133.016 73.792 132.163 74.0267 131.053 74.016L127.725 74V65.6H128.861V68.528L131.261 68.56ZM130.973 73.152C131.763 73.1627 132.355 73.008 132.749 72.688C133.155 72.3573 133.357 71.8773 133.357 71.248C133.357 70.6187 133.16 70.16 132.765 69.872C132.371 69.5733 131.773 69.4187 130.973 69.408L128.861 69.376V73.12L130.973 73.152ZM143.888 74.08C143.013 74.08 142.245 73.8987 141.584 73.536C140.923 73.1627 140.405 72.656 140.032 72.016C139.659 71.3653 139.472 70.624 139.472 69.792C139.472 68.96 139.648 68.224 140 67.584C140.363 66.944 140.853 66.4427 141.472 66.08C142.101 65.7067 142.805 65.52 143.584 65.52C144.373 65.52 145.072 65.7013 145.68 66.064C146.299 66.416 146.784 66.9173 147.136 67.568C147.488 68.208 147.664 68.9493 147.664 69.792C147.664 69.8453 147.659 69.904 147.648 69.968C147.648 70.0213 147.648 70.08 147.648 70.144H140.336V69.296H147.04L146.592 69.632C146.592 69.024 146.459 68.4853 146.192 68.016C145.936 67.536 145.584 67.1627 145.136 66.896C144.688 66.6293 144.171 66.496 143.584 66.496C143.008 66.496 142.491 66.6293 142.032 66.896C141.573 67.1627 141.216 67.536 140.96 68.016C140.704 68.496 140.576 69.0453 140.576 69.664V69.84C140.576 70.48 140.715 71.0453 140.992 71.536C141.28 72.016 141.675 72.3947 142.176 72.672C142.688 72.9387 143.269 73.072 143.92 73.072C144.432 73.072 144.907 72.9813 145.344 72.8C145.792 72.6187 146.176 72.3413 146.496 71.968L147.136 72.704C146.763 73.152 146.293 73.4933 145.728 73.728C145.173 73.9627 144.56 74.08 143.888 74.08ZM158.702 74.08C157.977 74.08 157.321 73.9147 156.734 73.584C156.147 73.2427 155.678 72.7573 155.326 72.128C154.985 71.488 154.814 70.7093 154.814 69.792C154.814 68.8747 154.985 68.1013 155.326 67.472C155.667 66.832 156.131 66.3467 156.718 66.016C157.305 65.6853 157.966 65.52 158.702 65.52C159.502 65.52 160.217 65.7013 160.846 66.064C161.486 66.416 161.987 66.9173 162.35 67.568C162.713 68.208 162.894 68.9493 162.894 69.792C162.894 70.6453 162.713 71.392 162.35 72.032C161.987 72.672 161.486 73.1733 160.846 73.536C160.217 73.8987 159.502 74.08 158.702 74.08ZM154.366 77.104V65.6H155.454V68.128L155.342 69.808L155.502 71.504V77.104H154.366ZM158.622 73.072C159.219 73.072 159.753 72.9387 160.222 72.672C160.691 72.3947 161.065 72.0107 161.342 71.52C161.619 71.0187 161.758 70.4427 161.758 69.792C161.758 69.1413 161.619 68.5707 161.342 68.08C161.065 67.5893 160.691 67.2053 160.222 66.928C159.753 66.6507 159.219 66.512 158.622 66.512C158.025 66.512 157.486 66.6507 157.006 66.928C156.537 67.2053 156.163 67.5893 155.886 68.08C155.619 68.5707 155.486 69.1413 155.486 69.792C155.486 70.4427 155.619 71.0187 155.886 71.52C156.163 72.0107 156.537 72.3947 157.006 72.672C157.486 72.9387 158.025 73.072 158.622 73.072ZM168.935 74.08C168.06 74.08 167.292 73.8987 166.631 73.536C165.969 73.1627 165.452 72.656 165.079 72.016C164.705 71.3653 164.519 70.624 164.519 69.792C164.519 68.96 164.695 68.224 165.047 67.584C165.409 66.944 165.9 66.4427 166.519 66.08C167.148 65.7067 167.852 65.52 168.631 65.52C169.42 65.52 170.119 65.7013 170.727 66.064C171.345 66.416 171.831 66.9173 172.183 67.568C172.535 68.208 172.711 68.9493 172.711 69.792C172.711 69.8453 172.705 69.904 172.695 69.968C172.695 70.0213 172.695 70.08 172.695 70.144H165.383V69.296H172.087L171.639 69.632C171.639 69.024 171.505 68.4853 171.239 68.016C170.983 67.536 170.631 67.1627 170.183 66.896C169.735 66.6293 169.217 66.496 168.631 66.496C168.055 66.496 167.537 66.6293 167.079 66.896C166.62 67.1627 166.263 67.536 166.007 68.016C165.751 68.496 165.623 69.0453 165.623 69.664V69.84C165.623 70.48 165.761 71.0453 166.039 71.536C166.327 72.016 166.721 72.3947 167.223 72.672C167.735 72.9387 168.316 73.072 168.967 73.072C169.479 73.072 169.953 72.9813 170.391 72.8C170.839 72.6187 171.223 72.3413 171.543 71.968L172.183 72.704C171.809 73.152 171.34 73.4933 170.775 73.728C170.22 73.9627 169.607 74.08 168.935 74.08ZM180.745 73.008L180.489 73.312V65.6H181.625V73.312L181.321 73.008H186.009L185.705 73.312V65.6H186.841V74H175.225V65.6H176.361V73.312L176.073 73.008H180.745ZM193.669 74.08C192.794 74.08 192.026 73.8987 191.365 73.536C190.704 73.1627 190.186 72.656 189.813 72.016C189.44 71.3653 189.253 70.624 189.253 69.792C189.253 68.96 189.429 68.224 189.781 67.584C190.144 66.944 190.634 66.4427 191.253 66.08C191.882 65.7067 192.586 65.52 193.365 65.52C194.154 65.52 194.853 65.7013 195.461 66.064C196.08 66.416 196.565 66.9173 196.917 67.568C197.269 68.208 197.445 68.9493 197.445 69.792C197.445 69.8453 197.44 69.904 197.429 69.968C197.429 70.0213 197.429 70.08 197.429 70.144H190.117V69.296H196.821L196.373 69.632C196.373 69.024 196.24 68.4853 195.973 68.016C195.717 67.536 195.365 67.1627 194.917 66.896C194.469 66.6293 193.952 66.496 193.365 66.496C192.789 66.496 192.272 66.6293 191.813 66.896C191.354 67.1627 190.997 67.536 190.741 68.016C190.485 68.496 190.357 69.0453 190.357 69.664V69.84C190.357 70.48 190.496 71.0453 190.773 71.536C191.061 72.016 191.456 72.3947 191.957 72.672C192.469 72.9387 193.05 73.072 193.701 73.072C194.213 73.072 194.688 72.9813 195.125 72.8C195.573 72.6187 195.957 72.3413 196.277 71.968L196.917 72.704C196.544 73.152 196.074 73.4933 195.509 73.728C194.954 73.9627 194.341 74.08 193.669 74.08ZM199.96 74V65.6H201.096V69.312H206.392V65.6H207.528V74H206.392V70.288H201.096V74H199.96ZM210.757 74V65.6H211.893V72.272L217.509 65.6H218.517V74H217.381V67.312L211.781 74H210.757ZM227.196 74V70.976L227.404 71.216H224.556C223.479 71.216 222.636 70.9813 222.028 70.512C221.42 70.0427 221.116 69.36 221.116 68.464C221.116 67.504 221.442 66.7893 222.092 66.32C222.743 65.84 223.612 65.6 224.7 65.6H228.236V74H227.196ZM221.052 74L223.356 70.768H224.54L222.284 74H221.052ZM227.196 70.64V66.256L227.404 66.592H224.732C223.954 66.592 223.346 66.7413 222.908 67.04C222.482 67.3387 222.268 67.824 222.268 68.496C222.268 69.744 223.063 70.368 224.652 70.368H227.404L227.196 70.64Z" fill="white"/>
<path d="M52 50H267" stroke="white" stroke-width="2"/>
<path d="M7.71428 80.6822H2.10389V80.0051H7.1116V77.4067H7.71428V80.6822ZM7.71428 68.1651V68.8749L2.10389 66.8223V66.1234L7.71428 64.0702V64.78L2.99147 66.4508V66.4943L7.71428 68.1651ZM5.52272 67.9031V65.042H6.1254V67.9031H5.52272ZM7.71428 55.0089L2.10389 56.5376V55.8497L6.6733 54.6813V54.6267L2.10389 53.4364V52.6721L6.6733 51.4818V51.4272L2.10388 50.2588V49.5708L7.71428 51.0996V51.7984L3.24349 53.0324V53.076L7.71428 54.31V55.0089ZM7.71428 41.1167H2.10388V37.7643H2.70656V40.4397H4.60226V38.0155H5.20494V40.4397H7.71428V41.1167ZM2.10388 28.3171H7.71428V28.9941H2.10388V28.3171ZM7.71428 19.349H2.10388V17.4599C2.10388 17.0231 2.17876 16.6646 2.32852 16.3843C2.47645 16.104 2.68008 15.8965 2.93942 15.7619C3.19875 15.6272 3.49369 15.5599 3.82426 15.5599C4.15481 15.5599 4.44794 15.6272 4.70362 15.7619C4.9593 15.8965 5.16019 16.1031 5.3063 16.3816C5.45058 16.66 5.52271 17.0158 5.52271 17.449V18.9778H4.90908V17.4708C4.90908 17.1723 4.86525 16.9321 4.77758 16.7501C4.68992 16.5663 4.56574 16.4334 4.40502 16.3516C4.24248 16.2678 4.04889 16.2259 3.82426 16.2259C3.59962 16.2259 3.4033 16.2678 3.23528 16.3516C3.06725 16.4352 2.93759 16.569 2.84627 16.7529C2.75314 16.9367 2.70656 17.1796 2.70656 17.4818V18.672H7.71428V19.349ZM5.19398 16.7174L7.71428 15.3415V16.1277L5.19398 17.4818V16.7174ZM2.10388 6.82112V6.01303L6.76092 4.113V4.04748L2.10388 2.14744V1.33939H7.71428V1.97273H3.45169V2.02733L7.71428 3.77449V4.38599L3.45169 6.13315V6.18775H7.71428V6.82112H2.10388Z" fill="#FFC107"/>
<path fill-rule="evenodd" clip-rule="evenodd" d="M45 0H8.35712V82H20.9807C20.108 81.7899 19.2843 81.5227 18.5095 81.1979C16.3256 80.2774 14.6158 78.9346 13.3803 77.1684C12.1574 75.4022 11.4959 73.251 11.3961 70.7141H18.2287C18.3285 72.0447 18.7404 73.1517 19.4642 74.0345C20.188 74.9173 21.1302 75.5765 22.2909 76.0121C23.4639 76.4471 24.7743 76.6649 26.222 76.6649C27.732 76.6649 29.0549 76.4407 30.1905 75.9935C31.3387 75.5329 32.2372 74.8987 32.8861 74.0902C33.5351 73.2696 33.8658 72.3118 33.8783 71.2176C33.8658 70.2227 33.5725 69.4021 32.9985 68.7551C32.4244 68.0959 31.6194 67.5488 30.5836 67.1138C29.5603 66.666 28.3623 66.2682 26.9895 65.9197L22.6278 64.8005C19.4704 63.9922 16.9745 62.7672 15.14 61.1256C13.318 59.4715 12.4069 57.2765 12.4069 54.5405C12.4069 52.2895 13.0184 50.3183 14.2414 48.627C15.477 46.9356 17.1555 45.6236 19.277 44.6909C21.3986 43.7457 23.8009 43.2731 26.484 43.2731C29.2047 43.2731 31.5882 43.7457 33.6349 44.6909C35.6941 45.6236 37.3102 46.9232 38.4833 48.5897C39.6564 50.2437 40.2617 52.1465 40.2991 54.298H33.6162C33.4415 52.6688 32.7052 51.4003 31.4073 50.4925C30.1219 49.5846 28.4496 49.1307 26.3904 49.1307C24.9428 49.1307 23.7011 49.3483 22.6653 49.7835C21.6294 50.2188 20.837 50.8096 20.2879 51.5558C19.7388 52.3019 19.458 53.1538 19.4455 54.1114C19.4455 54.9073 19.6265 55.5976 19.9883 56.1821C20.3627 56.7666 20.8681 57.2641 21.5046 57.6744C22.1411 58.0724 22.8462 58.4082 23.62 58.6818C24.3937 58.9554 25.1737 59.1855 25.9599 59.372L29.554 60.2674C31.0017 60.6032 32.3932 61.0571 33.7285 61.6292C35.0763 62.2013 36.2806 62.9226 37.3414 63.7931C38.4147 64.6634 39.2632 65.7147 39.8873 66.946C40.5112 68.1772 40.8232 69.6193 40.8232 71.2734C40.8232 73.5124 40.2491 75.4836 39.1011 77.187C37.9529 78.8782 36.2931 80.203 34.1216 81.1608C33.3415 81.5022 32.5019 81.7822 31.6028 82H45V0Z" fill="#FFC107"/>
</svg>
